<?xml version="1.0" encoding="UTF-8" standalone="no"?>
<svg
   xmlns:dc="http://purl.org/dc/elements/1.1/"
   xmlns:cc="http://creativecommons.org/ns#"
   xmlns:rdf="http://www.w3.org/1999/02/22-rdf-syntax-ns#"
   xmlns:svg="http://www.w3.org/2000/svg"
   xmlns="http://www.w3.org/2000/svg"
   xmlns:xlink="http://www.w3.org/1999/xlink"
   id="svg4573"
   version="1.1"
   viewBox="0 0 67.733332 67.733335"
   height="256"
   width="256">
  <title
     id="title4577">TrimPress Logo</title>
  <defs
     id="defs4567">
    <linearGradient
       id="linearGradient5478">
      <stop
         style="stop-color:#ffffff;stop-opacity:1;"
         offset="0"
         id="stop5474" />
      <stop
         style="stop-color:#e3dedb;stop-opacity:1"
         offset="1"
         id="stop5476" />
    </linearGradient>
    <linearGradient
       id="linearGradient5328">
      <stop
         id="stop5324"
         offset="0"
         style="stop-color:#c8cfd8;stop-opacity:1" />
      <stop
         id="stop5326"
         offset="1"
         style="stop-color:#87909d;stop-opacity:1" />
    </linearGradient>
    <linearGradient
       id="linearGradient5322">
      <stop
         id="stop5318"
         offset="0"
         style="stop-color:#d3dae3;stop-opacity:1" />
      <stop
         id="stop5320"
         offset="1"
         style="stop-color:#87909d;stop-opacity:1" />
    </linearGradient>
    <linearGradient
       id="linearGradient5307">
      <stop
         id="stop5303"
         offset="0"
         style="stop-color:#fafbfc;stop-opacity:1" />
      <stop
         id="stop5305"
         offset="1"
         style="stop-color:#87909d;stop-opacity:1" />
    </linearGradient>
    <linearGradient
       id="linearGradient1059">
      <stop
         style="stop-color:#c0c7d0;stop-opacity:1"
         offset="0"
         id="stop1055" />
      <stop
         style="stop-color:#87909d;stop-opacity:1"
         offset="1"
         id="stop1057" />
    </linearGradient>
    <linearGradient
       gradientTransform="translate(-296.99998,-229.26664)"
       y2="262.67532"
       x2="0.40090615"
       y1="262.67532"
       x1="74.246704"
       gradientUnits="userSpaceOnUse"
       id="linearGradient5463"
       xlink:href="#linearGradient5478" />
    <linearGradient
       y2="246.13785"
       x2="-8.034461"
       y1="243.16406"
       x1="70.962669"
       gradientTransform="matrix(1.0640165,0,0,1.0640165,-2.1682999,-16.850168)"
       gradientUnits="userSpaceOnUse"
       id="linearGradient5465"
       xlink:href="#linearGradient5328" />
  </defs>
  <metadata
     id="metadata4570">
    <rdf:RDF>
      <cc:Work
         rdf:about="">
        <dc:format>image/svg+xml</dc:format>
        <dc:type
           rdf:resource="http://purl.org/dc/dcmitype/StillImage" />
        <dc:title>TrimPress Logo</dc:title>
        <dc:creator>
          <cc:Agent>
            <dc:title>David Matthew</dc:title>
          </cc:Agent>
        </dc:creator>
      </cc:Work>
    </rdf:RDF>
  </metadata>
  <g
     transform="translate(0,-229.26665)"
     id="layer1">
    <rect
       transform="rotate(-90)"
       style="fill:url(#linearGradient5463);fill-opacity:1;stroke:none;stroke-width:4.09756613;stroke-linecap:round;stroke-linejoin:round;stroke-miterlimit:1.5;stroke-dasharray:none;stroke-opacity:1;paint-order:markers fill stroke"
       id="rect5447"
       width="67.73333"
       height="67.73333"
       x="-296.99997"
       y="1.8635254e-06"
       rx="0"
       ry="0" />
    <path
       style="clip-rule:evenodd;fill:url(#linearGradient5465);fill-opacity:1;fill-rule:evenodd;stroke:none;stroke-width:0.50380057;stroke-linejoin:round;stroke-miterlimit:1.5;stroke-dasharray:none;stroke-opacity:1"
       d="m 7.1075981,240.25883 c 0.1140814,1.7523 -0.8473124,5.96363 -0.8473124,5.96363 l 18.4319293,1.798 c 0,0 -0.174295,-1.6377 1.898069,-1.57641 7.655874,0.2262 13.764714,-0.0282 18.590835,-0.51026 0.52399,-0.94236 1.051945,-1.90339 1.578058,-2.85699 -9.03785,0.15283 -22.239291,-0.34276 -39.6515789,-2.81797 z m 54.3654499,1.72212 c 0,0 -3.290747,0.62321 -9.863684,0.94078 -0.386571,0.78411 -0.761742,1.54767 -1.143129,2.32311 8.204877,-1.34469 11.006813,-3.26389 11.006813,-3.26389 z"
       id="path5449" />
    <path
       d="m 50.599634,239.65612 c -0.94607,-0.26515 -2.08199,0.27747 -2.587636,1.15259 -7.808783,14.21847 -15.085284,26.96176 -25.268689,41.10181 -0.880241,1.52343 -0.362412,3.45851 1.16102,4.33873 0.761712,0.44014 1.626334,0.53074 2.410565,0.32088 0.784231,-0.20985 1.488055,-0.72017 1.928174,-1.48189 9.960013,-14.4661 16.151013,-27.53201 23.379527,-42.19327 0.551336,-1.09506 0.368467,-2.49643 -0.631676,-3.07432 -0.125013,-0.0722 -0.25613,-0.1266 -0.391285,-0.16453 z m -0.43917,1.13621 a 0.77235574,0.77235574 0 0 1 0.183613,0.0766 0.77235574,0.77235574 0 0 1 0.282523,1.05504 0.77235574,0.77235574 0 0 1 -1.055221,0.28248 0.77235574,0.77235574 0 0 1 -0.282299,-1.05518 0.77235574,0.77235574 0 0 1 0.871384,-0.35903 z"
       style="clip-rule:evenodd;display:inline;fill:#ac9d93;fill-opacity:1;fill-rule:evenodd;stroke:none;stroke-width:1.81142116;stroke-linecap:butt;stroke-linejoin:round;stroke-miterlimit:4;stroke-dasharray:none;stroke-opacity:1;paint-order:stroke markers fill;"
       id="path5451" />
    <path
       d="m 50.958353,239.80666 c -0.175001,0.37874 -0.350016,0.75509 -0.525143,1.12969 a 0.77235574,0.77235574 0 0 1 0.18036,0.98423 0.77235574,0.77235574 0 0 1 -0.818922,0.37142 c -11.259411,23.74649 -22.568815,38.8332 -26.379947,43.61645 0.145896,0.12424 0.304457,0.23787 0.476599,0.33731 0.761713,0.44013 1.626337,0.53073 2.410565,0.32088 0.784229,-0.20984 1.488054,-0.72017 1.928174,-1.4819 9.960011,-14.4661 16.151014,-27.53197 23.379529,-42.19325 0.551335,-1.09509 0.368465,-2.49646 -0.631683,-3.07433 -0.0064,-0.002 -0.01312,-0.007 -0.01953,-0.01 z"
       style="clip-rule:evenodd;display:inline;opacity:0.15;fill:#000000;fill-opacity:1;fill-rule:evenodd;stroke:none;stroke-width:1.81138003;stroke-linecap:butt;stroke-linejoin:miter;stroke-miterlimit:4;stroke-dasharray:none;stroke-opacity:1;paint-order:stroke markers fill;"
       id="path5453" />
    <path
       style="clip-rule:evenodd;opacity:0.15;fill:#000000;fill-opacity:1;fill-rule:evenodd;stroke:none;stroke-width:0.50380057;stroke-linejoin:round;stroke-miterlimit:1.5;stroke-dasharray:none;stroke-opacity:1"
       d="m 46.759177,243.0768 c -0.455851,0.008 -0.930019,0.0128 -1.407057,0.017 l -1.592353,2.96862 c 0.481759,-0.0415 0.962963,-0.0829 1.421352,-0.12866 0.52399,-0.94237 1.051945,-1.9034 1.578058,-2.857 z"
       id="path5455" />
    <path
       style="clip-rule:evenodd;opacity:0.6;fill:#ffffff;fill-opacity:1;fill-rule:evenodd;stroke:none;stroke-width:0.50380057;stroke-linejoin:round;stroke-miterlimit:1.5;stroke-dasharray:none;stroke-opacity:1"
       d="m 6.4714265,245.22614 c -0.1195906,0.58622 -0.2111408,0.99632 -0.2111408,0.99632 l 18.4319293,1.798 c 0,0 -0.05519,-0.52155 0.268875,-0.96498 z"
       id="path5457" />
  </g>
</svg>
